<svg width="55" height="56" viewBox="0 0 55 56" fill="none" xmlns="http://www.w3.org/2000/svg">
<path d="M50.9727 31.9033C51.0173 31.9529 51.0569 32.0074 51.0965 32.0569C51.1065 32.047 51.1163 32.0371 51.1262 32.0322C51.0767 31.9826 51.0222 31.943 50.9727 31.9033Z" stroke="#9141D7" stroke-width="1.48649" stroke-linecap="round" stroke-linejoin="round"/>
<path d="M50.9727 31.9033C51.0173 31.9529 51.0569 32.0074 51.0965 32.0569C51.1065 32.047 51.1163 32.0371 51.1262 32.0322C51.0767 31.9826 51.0222 31.943 50.9727 31.9033Z" stroke="#9141D7" stroke-width="1.48649" stroke-linecap="round" stroke-linejoin="round"/>
<path d="M18.0591 45.3714C17.96 45.9264 17.96 46.4814 18.0591 47.0314C16.8203 46.9918 15.2199 46.9273 13.2578 46.848C11.2956 46.7638 9.59109 46.6994 8.14424 46.6597L2.46094 46.4665V36.5566L8.14424 36.7498C9.59109 36.7894 11.2956 36.8539 13.2578 36.9381C15.2199 37.0174 16.8203 37.0818 18.0591 37.1214V45.3714Z" stroke="#9141D7" stroke-width="1.48649" stroke-linecap="round" stroke-linejoin="round"/>
<path d="M47.2531 39.1762L26.8041 39.1416L26.7843 37.6799L26.7148 32.373L32.5519 32.4127L32.6212 35.7821L47.1839 35.8069L47.2482 39.0375L47.2531 39.1762Z" fill="#C79EEA" stroke="#9141D7" stroke-width="1.48649" stroke-linecap="round" stroke-linejoin="round"/>
<path d="M51.0925 32.0562V41.9662C50.6763 41.4062 50.1213 40.8908 49.4325 40.4102C48.7537 39.9395 48.0303 39.4837 47.2524 39.0328L47.188 35.8021L32.6254 35.7774L32.5559 32.408L26.719 32.3684V37.6999C25.4406 38.1409 24.2317 38.6908 23.0871 39.3499C21.442 40.3012 20.1289 41.4755 19.1578 42.8729C18.573 43.7152 18.2114 44.5426 18.0677 45.3701V37.1201C17.82 35.7525 18.1816 34.3652 19.1578 32.963C20.1289 31.5656 21.442 30.3913 23.0871 29.4399C26.5555 27.4382 30.6235 26.4472 35.3059 26.4621C35.4 26.4621 35.4992 26.467 35.5933 26.467C40.3996 26.5215 44.2695 27.3985 47.2028 29.0931C48.0005 29.5539 48.7388 30.0196 49.4325 30.5003C50.0569 30.9363 50.5722 31.4021 50.9686 31.9026C51.0132 31.9521 51.0528 32.0067 51.0925 32.0562Z" stroke="#9141D7" stroke-width="1.48649" stroke-linecap="round" stroke-linejoin="round"/>
<path d="M53.6293 26.8368V27.1787C53.5797 28.9872 52.7423 30.6026 51.127 32.0346C51.0775 31.985 51.023 31.9453 50.9734 31.9056C50.577 31.4052 50.0617 30.9394 49.4376 30.5034C48.7438 30.0228 48.0056 29.5571 47.2079 29.0962C44.2745 27.4017 40.4047 26.5246 35.5984 26.4701C35.5042 26.4701 35.4051 26.4652 35.311 26.4652C30.6286 26.4503 26.5606 27.4413 23.0921 29.4431C21.4471 30.3944 20.134 31.5688 19.1628 32.9661C18.1867 34.3684 17.825 35.7556 18.0728 37.1233C16.834 37.0836 15.2335 37.0192 13.2713 36.9399C11.3092 36.8556 9.60473 36.7913 8.15785 36.7517L2.47455 36.5584L1.76596 29.3738C1.71641 28.8733 1.67677 28.3827 1.63714 27.9071C1.45876 25.7863 1.35966 23.8985 1.33984 22.2336V21.4408C1.35966 19.7214 1.54298 18.1953 1.87992 16.8376C2.2664 15.2768 2.91057 13.9242 3.81732 12.7845C4.72408 11.6449 5.96776 10.6192 7.54343 9.70748C10.7741 7.84441 14.5448 6.92281 18.8655 6.93768C23.1862 6.95749 26.9718 7.90388 30.2174 9.77683C32.011 10.8125 33.3538 12.0115 34.2408 13.3742C35.1227 14.7417 35.4696 16.1588 35.2664 17.6255C37.8182 17.5115 40.2709 17.7097 42.6295 18.2201C44.993 18.7354 47.0692 19.5084 48.8678 20.5439C51.8009 22.2385 53.3815 24.171 53.5996 26.3364C53.6193 26.5048 53.6293 26.6733 53.6293 26.8368Z" fill="#C79EEA" stroke="#9141D7" stroke-width="1.48649" stroke-linecap="round" stroke-linejoin="round"/>
<path d="M18.0586 47.0311V45.3711" stroke="#9141D7" stroke-width="1.48649" stroke-linecap="round" stroke-linejoin="round"/>
<path d="M2.47455 36.5542V46.4642L1.76596 39.2795C1.50831 36.5542 1.36462 34.1758 1.33984 32.1394V22.2295C1.35966 23.8944 1.45876 25.7821 1.63714 27.9029C1.67677 28.3786 1.71641 28.8691 1.76596 29.3696L2.47455 36.5542Z" stroke="#9141D7" stroke-width="1.48649" stroke-linecap="round" stroke-linejoin="round"/>
<path d="M53.6296 27.1787V37.1233C53.5702 38.9319 52.7229 40.5422 51.0977 41.9692V32.0593C51.0977 32.0593 51.1175 32.0395 51.1274 32.0346C52.7428 30.6026 53.5801 28.9873 53.6296 27.1787Z" stroke="#9141D7" stroke-width="1.48649" stroke-linecap="round" stroke-linejoin="round"/>
<path d="M47.2499 39.1753V49.0852L26.8008 49.0505V39.1406L47.2499 39.1753Z" stroke="#9141D7" stroke-width="1.48649" stroke-linecap="round" stroke-linejoin="round"/>
<path d="M26.8041 39.1416V49.0515L26.7148 42.283V32.373L26.7843 37.6799L26.8041 39.1416Z" stroke="#9141D7" stroke-width="1.48649" stroke-linecap="round" stroke-linejoin="round"/>
</svg>
