<svg width="64" height="64" viewBox="0 0 64 64" fill="none" xmlns="http://www.w3.org/2000/svg">
<path d="M47.6814 31.9424L47.5398 32.0263L47.7392 32.1417L47.8807 32.0578L47.6814 31.9424ZM43.9883 34.0722L44.0251 34.0932V34.0512L43.9883 34.0722Z" stroke="#2925AD" stroke-width="1.57377" stroke-linecap="round" stroke-linejoin="round"/>
<path d="M49.5595 26.8011L44.0251 29.9958V34.0509L43.9883 34.0719V23.5801L45.8086 24.6345L49.3601 26.6857L49.5595 26.8011Z" stroke="#2925AD" stroke-width="1.57377" stroke-linecap="round" stroke-linejoin="round"/>
<path d="M49.6146 37.4873L47.7366 38.5732L44.2218 40.6034L34.8526 46.0119L14.2257 34.1037L10.5116 31.9581L1.42578 26.7122L34.6428 7.5332L49.4992 16.1103L45.806 18.2401L34.669 11.8086L8.83293 26.7227L14.2047 29.823L17.9189 31.9686L34.8264 41.7365L44.0225 36.4276L45.9006 35.3417L47.7366 36.4014L49.4153 37.3719L49.6146 37.4873Z" fill="#A19EEA" stroke="#2925AD" stroke-width="1.57377" stroke-linecap="round" stroke-linejoin="round"/>
<path d="M47.6808 31.9422L47.5391 32.0261L47.7385 32.1416L47.88 32.0576L47.6808 31.9422ZM62.5003 30.0117V30.0432L62.5318 30.0275L62.5003 30.0117Z" stroke="#2925AD" stroke-width="1.57377" stroke-linecap="round" stroke-linejoin="round"/>
<path d="M56.9616 26.8115L62.5013 30.0115V30.043L58.9865 32.0784L58.8449 32.1571L58.6455 32.0417L53.2737 28.9413L47.8807 32.0574L47.6814 31.942L47.5398 32.0259L44.0251 29.9958L49.5595 26.801L49.3601 26.6856L45.8086 24.6345L43.9883 23.58L44.1299 23.5013L45.8086 22.5309L47.6814 21.4502L49.5017 22.4994L53.2475 24.6659L58.7872 21.4712L62.5013 23.6168L56.9616 26.8115Z" fill="#A19EEA" stroke="#2925AD" stroke-width="1.57377" stroke-linecap="round" stroke-linejoin="round"/>
<path d="M34.8526 46.0116V56.5034L1.42578 37.2037V26.7119L10.5116 31.9578L14.2257 34.1034L34.8526 46.0116Z" stroke="#2925AD" stroke-width="1.57377" stroke-linecap="round" stroke-linejoin="round"/>
<path d="M34.672 11.8086V22.3004L17.9219 31.9686L14.2077 29.823L8.83594 26.7227L34.672 11.8086Z" stroke="#2925AD" stroke-width="1.57377" stroke-linecap="round" stroke-linejoin="round"/>
<path d="M45.8089 18.2401V22.5312L44.1303 23.5017L43.9886 23.5804V27.6827L34.6719 22.3004V11.8086L45.8089 18.2401Z" stroke="#2925AD" stroke-width="1.57377" stroke-linecap="round" stroke-linejoin="round"/>
<path d="M49.5018 16.1104V22.4999L47.6814 21.4507L45.8086 22.5313V18.2402L49.5018 16.1104Z" stroke="#2925AD" stroke-width="1.57377" stroke-linecap="round" stroke-linejoin="round"/>
<path d="M53.2727 28.9414V39.4332L49.6162 41.5473V37.487L49.417 37.3716L49.5586 37.2929L47.7383 36.2385V32.1414L47.8798 32.0575L53.2727 28.9414Z" stroke="#2925AD" stroke-width="1.57377" stroke-linecap="round" stroke-linejoin="round"/>
<path d="M58.8446 32.1571V42.6489L53.2734 39.4332V28.9414L58.6452 32.0417L58.8446 32.1571Z" stroke="#2925AD" stroke-width="1.57377" stroke-linecap="round" stroke-linejoin="round"/>
<path d="M62.5316 30.0273V40.5191L58.8438 42.649V32.1572L58.9854 32.0785L62.5001 30.0431L62.5316 30.0273Z" stroke="#2925AD" stroke-width="1.57377" stroke-linecap="round" stroke-linejoin="round"/>
<path d="M62.5006 23.6172V30.0119L56.9609 26.8119L62.5006 23.6172Z" stroke="#2925AD" stroke-width="1.57377" stroke-linecap="round" stroke-linejoin="round"/>
<path d="M47.7376 32.1417V36.4013L45.9015 35.3417L44.0234 36.4276V29.9961L47.5382 32.0263L47.7376 32.1417Z" stroke="#2925AD" stroke-width="1.57377" stroke-linecap="round" stroke-linejoin="round"/>
<path d="M49.6134 37.4873V47.9791L34.8516 56.5037V46.0119L44.2206 40.6034L47.7355 38.5732L49.6134 37.4873Z" stroke="#2925AD" stroke-width="1.57377" stroke-linecap="round" stroke-linejoin="round"/>
</svg>
