<svg width="55" height="56" viewBox="0 0 55 56" fill="none" xmlns="http://www.w3.org/2000/svg">
<path d="M40.9667 28.1055L40.845 28.1776L41.0164 28.2767L41.138 28.2046L40.9667 28.1055ZM37.793 29.9358L37.8246 29.9538V29.9177L37.793 29.9358Z" stroke="#2925AD" stroke-width="1.35246" stroke-linecap="round" stroke-linejoin="round"/>
<path d="M42.5807 23.686L37.8246 26.4315V29.9163L37.793 29.9344V20.918L39.3573 21.8241L42.4094 23.5868L42.5807 23.686Z" stroke="#2925AD" stroke-width="1.35246" stroke-linecap="round" stroke-linejoin="round"/>
<path d="M42.6388 32.8697L41.0249 33.8029L38.0044 35.5476L29.9527 40.1956L12.2265 29.962L9.03469 28.1181L1.22656 23.6099L29.7724 7.12793L42.5397 14.4989L39.3658 16.3292L29.795 10.8021L7.59208 23.6189L12.2084 26.2832L15.4003 28.1271L29.9302 36.5214L37.8331 31.9591L39.4471 31.0259L41.0249 31.9365L42.4676 32.7706L42.6388 32.8697Z" fill="#A19EEA" stroke="#2925AD" stroke-width="1.35246" stroke-linecap="round" stroke-linejoin="round"/>
<path d="M40.9733 28.1043L40.8516 28.1764L41.0229 28.2757L41.1445 28.2035L40.9733 28.1043ZM53.7088 26.4453V26.4724L53.7359 26.4589L53.7088 26.4453Z" stroke="#2925AD" stroke-width="1.35246" stroke-linecap="round" stroke-linejoin="round"/>
<path d="M48.9419 23.6943L53.7026 26.4443V26.4714L50.682 28.2205L50.5604 28.2882L50.389 28.189L45.7726 25.5246L41.138 28.2025L40.9667 28.1033L40.845 28.1754L37.8246 26.4308L42.5807 23.6853L42.4094 23.5861L39.3573 21.8234L37.793 20.9172L37.9147 20.8496L39.3573 20.0156L40.9667 19.0869L42.531 19.9886L45.7501 21.8504L50.5108 19.105L53.7026 20.9488L48.9419 23.6943Z" fill="#A19EEA" stroke="#2925AD" stroke-width="1.35246" stroke-linecap="round" stroke-linejoin="round"/>
<path d="M29.9527 40.1951V49.2114L1.22656 32.6258V23.6094L9.03469 28.1176L12.2265 29.9614L29.9527 40.1951Z" stroke="#2925AD" stroke-width="1.35246" stroke-linecap="round" stroke-linejoin="round"/>
<path d="M29.7888 10.8018V19.8181L15.3942 28.1268L12.2023 26.2829L7.58594 23.6186L29.7888 10.8018Z" stroke="#2925AD" stroke-width="1.35246" stroke-linecap="round" stroke-linejoin="round"/>
<path d="M39.3677 16.3288V20.0165L37.9252 20.8505L37.8034 20.9181V24.4436L29.7969 19.8181V10.8018L39.3677 16.3288Z" stroke="#2925AD" stroke-width="1.35246" stroke-linecap="round" stroke-linejoin="round"/>
<path d="M42.5449 14.5V19.991L40.9805 19.0893L39.3711 20.018V16.3303L42.5449 14.5Z" stroke="#2925AD" stroke-width="1.35246" stroke-linecap="round" stroke-linejoin="round"/>
<path d="M45.7835 25.5273V34.5437L42.6412 36.3605V32.8712L42.47 32.772L42.5917 32.7044L41.0273 31.7983V28.2773L41.1489 28.2052L45.7835 25.5273Z" stroke="#2925AD" stroke-width="1.35246" stroke-linecap="round" stroke-linejoin="round"/>
<path d="M50.5807 28.2908V37.3072L45.793 34.5437V25.5273L50.4094 28.1917L50.5807 28.2908Z" stroke="#2925AD" stroke-width="1.35246" stroke-linecap="round" stroke-linejoin="round"/>
<path d="M53.7434 26.457V35.4734L50.5742 37.3038V28.2874L50.6959 28.2198L53.7164 26.4706L53.7434 26.457Z" stroke="#2925AD" stroke-width="1.35246" stroke-linecap="round" stroke-linejoin="round"/>
<path d="M53.7021 20.9512V26.4466L48.9414 23.6966L53.7021 20.9512Z" stroke="#2925AD" stroke-width="1.35246" stroke-linecap="round" stroke-linejoin="round"/>
<path d="M41.0239 28.2755V31.9361L39.446 31.0255L37.832 31.9587V26.4316L40.8526 28.1763L41.0239 28.2755Z" stroke="#2925AD" stroke-width="1.35246" stroke-linecap="round" stroke-linejoin="round"/>
<path d="M42.6234 32.8701V41.8865L29.9375 49.2123V40.1959L37.989 35.548L41.0096 33.8033L42.6234 32.8701Z" stroke="#2925AD" stroke-width="1.35246" stroke-linecap="round" stroke-linejoin="round"/>
</svg>
