<svg width="64" height="64" viewBox="0 0 64 64" fill="none" xmlns="http://www.w3.org/2000/svg">
<path d="M59.3086 36.6357C59.3605 36.6934 59.4066 36.7568 59.4527 36.8144C59.4643 36.8029 59.4758 36.7914 59.4873 36.7857C59.4297 36.728 59.3663 36.6819 59.3086 36.6357Z" stroke="#9141D7" stroke-width="1.72973" stroke-linecap="round" stroke-linejoin="round"/>
<path d="M59.3086 36.6357C59.3605 36.6934 59.4066 36.7568 59.4527 36.8144C59.4643 36.8029 59.4758 36.7914 59.4873 36.7857C59.4297 36.728 59.3663 36.6819 59.3086 36.6357Z" stroke="#9141D7" stroke-width="1.72973" stroke-linecap="round" stroke-linejoin="round"/>
<path d="M21.0217 52.307C20.9064 52.9528 20.9064 53.5986 21.0217 54.2386C19.5802 54.1925 17.7179 54.1175 15.4347 54.0252C13.1514 53.9272 11.168 53.8523 9.48439 53.8061L2.87109 53.5813V42.0498L9.48439 42.2746C11.168 42.3207 13.1514 42.3957 15.4347 42.4937C17.7179 42.586 19.5802 42.6609 21.0217 42.707V52.307Z" stroke="#9141D7" stroke-width="1.72973" stroke-linecap="round" stroke-linejoin="round"/>
<path d="M54.9889 45.0941L31.1937 45.0538L31.1706 43.3529L31.0898 37.1777L37.882 37.2239L37.9627 41.1446L54.9083 41.1734L54.9832 44.9327L54.9889 45.0941Z" fill="#C79EEA" stroke="#9141D7" stroke-width="1.72973" stroke-linecap="round" stroke-linejoin="round"/>
<path d="M59.4503 36.8144V48.346C58.966 47.6944 58.3202 47.0947 57.5187 46.5354C56.7288 45.9877 55.887 45.4573 54.9818 44.9326L54.9069 41.1733L37.9613 41.1445L37.8805 37.2238L31.0884 37.1777V43.3816C29.6008 43.8948 28.1941 44.5347 26.8622 45.3016C24.9479 46.4086 23.4199 47.7751 22.2899 49.4011C21.6095 50.3813 21.1887 51.3441 21.0214 52.307V42.707C20.7332 41.1156 21.154 39.5013 22.2899 37.8696C23.4199 36.2436 24.9479 34.8771 26.8622 33.77C30.8982 31.4407 35.6318 30.2876 41.0805 30.3049C41.19 30.3049 41.3054 30.3106 41.4149 30.3106C47.0077 30.374 51.5108 31.3946 54.9241 33.3665C55.8524 33.9027 56.7115 34.4446 57.5187 35.0039C58.2452 35.5113 58.8449 36.0533 59.3061 36.6357C59.358 36.6933 59.4041 36.7568 59.4503 36.8144Z" stroke="#9141D7" stroke-width="1.72973" stroke-linecap="round" stroke-linejoin="round"/>
<path d="M62.3967 30.7366V31.1344C62.339 33.2389 61.3646 35.1186 59.4849 36.7849C59.4273 36.7272 59.3639 36.6811 59.3062 36.6349C58.8449 36.0526 58.2453 35.5106 57.5191 35.0032C56.7118 34.4439 55.8527 33.902 54.9245 33.3657C51.5111 31.3939 47.0081 30.3733 41.4153 30.3099C41.3057 30.3099 41.1904 30.3042 41.0809 30.3042C35.6322 30.2869 30.8986 31.44 26.8625 33.7694C24.9483 34.8764 23.4203 36.2429 22.2902 37.8689C21.1544 39.5006 20.7335 41.1149 21.0218 42.7063C19.5803 42.6602 17.718 42.5852 15.4347 42.493C13.1515 42.3949 11.1681 42.32 9.48446 42.2739L2.87116 42.049L2.04663 33.6887C1.98897 33.1063 1.94284 32.5355 1.89672 31.982C1.68915 29.5142 1.57384 27.3175 1.55078 25.3802V24.4576C1.57384 22.4569 1.78716 20.6811 2.17923 19.1012C2.62896 17.285 3.37853 15.711 4.43366 14.3848C5.4888 13.0587 6.93599 11.8652 8.7695 10.8043C12.5288 8.63637 16.9165 7.56396 21.9443 7.58126C26.972 7.60432 31.3771 8.70557 35.1537 10.885C37.2409 12.0901 38.8034 13.4854 39.8355 15.071C40.8618 16.6623 41.2654 18.3113 41.029 20.018C43.9983 19.8854 46.8524 20.116 49.5969 20.7099C52.3472 21.3095 54.7631 22.209 56.856 23.414C60.2691 25.3859 62.1084 27.6346 62.3621 30.1543C62.3851 30.3503 62.3967 30.5463 62.3967 30.7366Z" fill="#C79EEA" stroke="#9141D7" stroke-width="1.72973" stroke-linecap="round" stroke-linejoin="round"/>
<path d="M21.0234 54.2382V52.3066" stroke="#9141D7" stroke-width="1.72973" stroke-linecap="round" stroke-linejoin="round"/>
<path d="M2.87116 42.0497V53.5813L2.04663 45.2209C1.74681 42.0497 1.57961 39.2821 1.55078 36.9124V25.3809C1.57384 27.3182 1.68915 29.5149 1.89672 31.9827C1.94284 32.5362 1.98897 33.107 2.04663 33.6894L2.87116 42.0497Z" stroke="#9141D7" stroke-width="1.72973" stroke-linecap="round" stroke-linejoin="round"/>
<path d="M62.3955 31.1348V42.7067C62.3263 44.8112 61.3404 46.685 59.4492 48.3456V36.814C59.4492 36.814 59.4723 36.791 59.4838 36.7853C61.3635 35.119 62.3379 33.2393 62.3955 31.1348Z" stroke="#9141D7" stroke-width="1.72973" stroke-linecap="round" stroke-linejoin="round"/>
<path d="M54.9867 45.0941V56.6256L31.1914 56.5852V45.0537L54.9867 45.0941Z" stroke="#9141D7" stroke-width="1.72973" stroke-linecap="round" stroke-linejoin="round"/>
<path d="M31.1937 45.0538V56.5853L31.0898 48.7093V37.1777L31.1706 43.3529L31.1937 45.0538Z" stroke="#9141D7" stroke-width="1.72973" stroke-linecap="round" stroke-linejoin="round"/>
</svg>
