<svg width="65" height="64" viewBox="0 0 65 64" fill="none" xmlns="http://www.w3.org/2000/svg">
<path d="M62.4468 20.1006V34.1665H62.4257V29.4685L62.4187 29.4615L54.1479 29.4474C53.5993 30.4039 52.889 31.29 52.0239 32.1129C51.2503 32.8443 50.3502 33.5195 49.3233 34.1454L40.3633 34.1314V20.0654L62.4468 20.1006Z" stroke="#2564AD" stroke-width="1.57" stroke-linecap="round" stroke-linejoin="round"/>
<path d="M1.98438 42.3807V56.4466L1.91406 43.6958V29.6299H1.93516L1.98438 42.3807Z" stroke="#2564AD" stroke-width="1.57" stroke-linecap="round" stroke-linejoin="round"/>
<path d="M9.71363 42.3949V56.4609L1.98438 56.4468V42.3809L9.71363 42.3949Z" stroke="#2564AD" stroke-width="1.57" stroke-linecap="round" stroke-linejoin="round"/>
<path d="M62.4452 20.1005L40.3617 20.0653L40.3406 15.5994L49.174 15.6205L48.6887 15.3392C44.0751 12.6737 38.5331 11.3445 32.0698 11.3445C25.6065 11.3445 20.0646 12.6808 15.4298 15.3603C14.2413 16.0425 13.2074 16.8021 12.3353 17.6249C11.4703 18.4408 10.7599 19.3339 10.2114 20.2904L1.93359 20.2693C2.65799 18.6799 3.69184 17.2099 5.01403 15.8596C6.34326 14.5022 7.96785 13.2715 9.89488 12.1603C16.0347 8.61567 23.4122 6.83633 32.0136 6.82227C40.6149 6.82227 48.0065 8.59457 54.1885 12.1603L54.6738 12.4416L54.6457 7.34271L62.3749 7.35677L62.4452 20.1005Z" fill="#9EC2EA" stroke="#2564AD" stroke-width="1.57" stroke-linecap="round" stroke-linejoin="round"/>
<path d="M24.0178 34.1383V37.5563C20.9655 36.9022 18.1804 35.8473 15.6696 34.3985L15.1914 34.1172L24.0178 34.1383Z" stroke="#2564AD" stroke-width="1.57" stroke-linecap="round" stroke-linejoin="round"/>
<path d="M10.2114 20.2897V29.6435L5.30941 29.6365L1.93359 29.6294V20.2686L10.2114 20.2897Z" stroke="#2564AD" stroke-width="1.57" stroke-linecap="round" stroke-linejoin="round"/>
<path d="M40.3402 15.5987L40.3613 20.0646V26.2536C37.7942 25.684 35.0303 25.4097 32.0694 25.4097C25.6061 25.4097 20.0641 26.7459 15.4294 29.4255C15.2958 29.5029 15.1692 29.5802 15.0426 29.6576L10.2109 29.6435V20.2897C10.7595 19.3332 11.4698 18.44 12.3348 17.6242C13.2069 16.8013 14.2408 16.0418 15.4294 15.3596C20.0641 12.68 25.6061 11.3438 32.0694 11.3438C38.5327 11.3438 44.0747 12.673 48.6883 15.3385L49.1736 15.6198L40.3402 15.5987Z" stroke="#2564AD" stroke-width="1.57" stroke-linecap="round" stroke-linejoin="round"/>
<path d="M62.4171 29.4613C61.6997 31.0648 60.6729 32.5277 59.3437 33.878C59.2523 33.9765 59.1538 34.0679 59.0553 34.1594C57.7824 35.4112 56.2492 36.5435 54.4628 37.5774C48.323 41.122 40.9454 42.9013 32.3441 42.9154C29.4254 42.9154 26.6544 42.7114 24.0171 42.3035C18.869 41.5088 14.2553 39.9334 10.1692 37.5774L9.6839 37.2961L9.71203 42.395L1.98281 42.3809L1.93359 29.6301H5.30941L10.2114 29.6442L15.043 29.6583L23.996 29.6723L24.0171 34.1383L15.1907 34.1172L15.669 34.3985C18.1797 35.8473 20.9648 36.9022 24.0171 37.5563C26.5841 38.1189 29.341 38.3932 32.2879 38.3932C38.7512 38.3932 44.3002 37.0499 48.9279 34.3774C49.0615 34.3 49.1881 34.2227 49.3217 34.1453C50.3485 33.5194 51.2487 32.8442 52.0224 32.1128C52.8874 31.2899 53.5977 30.4037 54.1463 29.4473L62.4171 29.4613Z" fill="#DCE9F8" stroke="#2564AD" stroke-width="1.57" stroke-linecap="round" stroke-linejoin="round"/>
<path d="M62.4238 30.3399V43.5267C61.6994 45.1232 60.6726 46.593 59.3434 47.9434C58.0141 49.3007 56.3895 50.5315 54.4625 51.6427C48.3227 55.1873 40.9451 56.9667 32.3438 56.9807C23.7425 56.9878 16.3508 55.2084 10.1689 51.6427L9.71173 51.3755V42.3944L9.68359 37.2955L10.1689 37.5768C14.255 39.9328 18.8687 41.5082 24.0168 42.3029C26.6541 42.7109 29.4251 42.9148 32.3438 42.9148C40.9451 42.9007 48.3227 41.1214 54.4625 37.5768C56.2489 36.5429 57.7821 35.4106 59.055 34.1588C59.1535 34.0673 59.252 33.9759 59.3434 33.8774C60.6726 32.5271 61.6994 31.0643 62.4168 29.4678V30.3399H62.4238Z" stroke="#2564AD" stroke-width="1.57" stroke-linecap="round" stroke-linejoin="round"/>
</svg>
