<svg width="65" height="64" viewBox="0 0 65 64" fill="none" xmlns="http://www.w3.org/2000/svg">
<path d="M18.8904 38.7432V50.3795L6.73047 57.402V45.7657L16.7377 39.9883L18.8904 38.7432Z" stroke="#4641D7" stroke-width="1.57" stroke-linecap="round" stroke-linejoin="round"/>
<path d="M21.2313 31.7441L13.9121 35.9681C13.3535 34.6939 13.0683 33.3965 13.0625 32.0641V20.4277C13.0741 22.4292 13.7084 24.3608 14.9826 26.2285C15.0524 26.3332 15.1223 26.4379 15.1979 26.5426C16.6117 28.5034 18.6189 30.2372 21.2313 31.7441Z" stroke="#4641D7" stroke-width="1.57" stroke-linecap="round" stroke-linejoin="round"/>
<path d="M62.7796 36.0089L57.9212 38.8191C55.7743 40.0584 53.3598 41.0591 50.666 41.8155C50.1016 41.9842 49.5315 42.1296 48.9439 42.2692C45.5519 43.0721 42.0259 43.4678 38.3721 43.462C34.7125 43.462 31.2042 43.0431 27.8412 42.2286C24.4842 41.414 21.4994 40.2504 18.8928 38.7435L16.7402 39.9886L6.73288 45.766L1.83984 42.9383L13.9126 35.9682L21.2317 31.7442C18.6194 30.2373 16.6122 28.5035 15.1984 26.5427C15.1228 26.438 15.0528 26.3333 14.983 26.2286C13.7088 24.3609 13.0746 22.4293 13.063 20.4278C13.0514 18.3158 13.7496 16.2852 15.1634 14.342C16.5714 12.3929 18.5788 10.6765 21.1678 9.17543L26.0317 6.37109L30.9249 9.1929C33.4966 10.6765 35.4863 12.3987 36.9001 14.3653C38.3139 16.326 39.0238 18.3624 39.0354 20.4744C39.0412 20.8817 39.0121 21.2889 38.9597 21.6903C38.8317 22.7143 38.5293 23.7092 38.0522 24.6809C37.7846 25.2278 37.4703 25.7631 37.1038 26.2926C36.5685 27.0664 35.9285 27.8286 35.1779 28.5675C35.6666 28.5209 36.1671 28.4918 36.6732 28.4802C37.1794 28.4686 37.7205 28.4627 38.2907 28.4627C38.5118 28.4627 38.7386 28.4628 38.9597 28.4744C42.375 28.5268 45.6856 28.934 48.8739 29.6961C52.2717 30.5165 55.2797 31.6743 57.8863 33.1812L62.7796 36.0089Z" fill="#A19EEA" stroke="#4641D7" stroke-width="1.57" stroke-linecap="round" stroke-linejoin="round"/>
<path d="M62.7775 36.0088V47.6452L57.9191 50.4554C55.3241 51.9507 52.3336 53.1026 48.9416 53.9055C45.5496 54.7084 42.0237 55.1041 38.3699 55.0983C34.7103 55.0983 31.202 54.6794 27.839 53.8648C24.482 53.0503 21.4972 51.8867 18.8906 50.3798V38.7434C21.4972 40.2503 24.482 41.4139 27.839 42.2285C31.202 43.043 34.7103 43.4561 38.3699 43.4619C42.0237 43.4678 45.5496 43.0721 48.9416 42.2692C49.5292 42.1295 50.0994 41.9841 50.6638 41.8154C53.3576 41.059 55.7721 40.0583 57.9191 38.819L62.7775 36.0088Z" stroke="#4641D7" stroke-width="1.57" stroke-linecap="round" stroke-linejoin="round"/>
<path d="M38.9576 21.6904V28.4745C38.7365 28.4629 38.5097 28.4628 38.2886 28.4628C37.7184 28.4628 37.1773 28.4687 36.6711 28.4803C36.1649 28.4919 35.6645 28.521 35.1758 28.5676C35.9263 27.8287 36.5664 27.0665 37.1017 26.2927C37.4682 25.7632 37.7824 25.2279 38.0501 24.681C38.5272 23.7093 38.8296 22.7144 38.9576 21.6904Z" stroke="#4641D7" stroke-width="1.57" stroke-linecap="round" stroke-linejoin="round"/>
<path d="M38.957 21.6897V21.5967" stroke="#4641D7" stroke-width="1.57" stroke-linecap="round" stroke-linejoin="round"/>
<path d="M6.73288 45.7661V57.4025L1.83984 54.5748V42.9385L6.73288 45.7661Z" stroke="#4641D7" stroke-width="1.57" stroke-linecap="round" stroke-linejoin="round"/>
</svg>
