<svg width="65" height="64" viewBox="0 0 65 64" fill="none" xmlns="http://www.w3.org/2000/svg">
<g clip-path="url(#clip0_1392_1391)">
<path d="M36.2877 21.3142V30.8672L36.2349 30.8379C34.9784 31.1902 33.6866 31.3663 32.3538 31.3604C31.0268 31.3604 29.7292 31.1784 28.4668 30.8261L24.1395 33.3274V28.3248C23.3116 27.3091 23.0415 26.2522 23.341 25.1659C23.6404 24.0738 24.4742 23.1402 25.8364 22.3535C27.1986 21.5667 28.8367 21.0735 30.7626 20.8797C32.6826 20.6859 34.5263 20.8327 36.2877 21.3142Z" stroke="#6D25AD" stroke-width="1.57" stroke-linecap="round" stroke-linejoin="round"/>
<path d="M24.1393 28.3242V33.3268L13.0949 39.7033V46.4438L8.77344 48.9451V37.202L24.1393 28.3242Z" stroke="#6D25AD" stroke-width="1.57" stroke-linecap="round" stroke-linejoin="round"/>
<path d="M8.77433 37.2026V48.9458C4.12404 45.6812 1.78715 41.9938 1.76953 37.8837V26.1406C1.7754 28.1546 2.34495 30.0687 3.46642 31.8771C4.63486 33.7619 6.40222 35.541 8.77433 37.2026Z" stroke="#6D25AD" stroke-width="1.57" stroke-linecap="round" stroke-linejoin="round"/>
<path d="M51.5599 12.5007L37.7499 20.4684L36.2879 21.3139C34.5265 20.8324 32.6828 20.6856 30.7628 20.8794C28.8369 21.0731 27.1988 21.5664 25.8366 22.3531C24.4744 23.1399 23.6406 24.0735 23.3412 25.1656C23.0417 26.2519 23.3118 27.3087 24.1397 28.3245L8.76798 37.2023C6.39587 35.5407 4.6285 33.7616 3.46006 31.8768C2.33859 30.0684 1.76906 28.1542 1.76319 26.1403C1.75732 25.8174 1.76906 25.4944 1.79842 25.1715C2.16832 20.668 5.13345 16.8163 10.6879 13.6045C16.2424 10.3987 22.9184 8.69003 30.7217 8.47279C38.5191 8.26141 45.4652 9.60013 51.5599 12.5007Z" fill="#AE73E1" stroke="#6D25AD" stroke-width="1.57" stroke-linecap="round" stroke-linejoin="round"/>
<path d="M62.9036 26.1579V26.2225C62.9036 28.2834 62.3341 30.2387 61.1891 32.0765C60.0383 33.9319 58.3121 35.6699 56.0046 37.2904L46.8097 31.9766L42.4824 29.4812L40.6211 28.4067V28.2423C41.173 27.5554 41.4607 26.8332 41.496 26.0875C41.5253 25.2948 41.2317 24.5374 40.6211 23.8093L44.3613 21.6486L51.5598 17.4915L55.8871 14.9961C60.5432 18.2666 62.8801 21.9832 62.9036 26.1579Z" fill="#EBDCF8" stroke="#6D25AD" stroke-width="1.57" stroke-linecap="round" stroke-linejoin="round"/>
<path d="M40.6271 28.2422V28.4066L40.5391 28.3537C40.5684 28.3185 40.6037 28.2774 40.6271 28.2422Z" stroke="#6D25AD" stroke-width="1.57" stroke-linecap="round" stroke-linejoin="round"/>
<path d="M51.561 12.501V17.4918L44.3625 21.6488L40.6223 23.8096V28.2426C40.5988 28.2778 40.5636 28.3189 40.5342 28.3542V30.6088L38.1856 31.9652L36.2891 30.8672V21.3142L37.7511 20.4687L51.561 12.501Z" stroke="#6D25AD" stroke-width="1.57" stroke-linecap="round" stroke-linejoin="round"/>
<path d="M51.7051 39.7744C49.4152 40.8607 46.9961 41.7179 44.442 42.3579C42.3282 42.8922 40.1205 43.2739 37.8248 43.5029C36.075 43.6731 34.2725 43.7612 32.4229 43.7553C30.5323 43.7495 28.6945 43.6555 26.9154 43.4676C24.6196 43.2269 22.4178 42.8335 20.2982 42.2875C17.7675 41.6475 15.366 40.7843 13.0938 39.704L24.1382 33.3275L28.4655 30.8262C29.7279 31.1785 31.0255 31.3605 32.3525 31.3605C33.6853 31.3605 34.9771 31.1902 36.2336 30.8379L36.2864 30.8673L38.1829 31.9653L40.5315 33.3216L42.5103 34.4607L51.7051 39.7744Z" fill="#DBC1F2" stroke="#6D25AD" stroke-width="1.57" stroke-linecap="round" stroke-linejoin="round"/>
<path d="M51.7051 39.7736V51.5167C46.0743 54.1824 39.6449 55.5094 32.4229 55.4976C25.195 55.48 18.7539 54.1295 13.0938 51.4462V39.7031C15.366 40.7835 17.7675 41.6466 20.2982 42.2866C22.4178 42.8327 24.6196 43.2261 26.9154 43.4668C28.6945 43.6547 30.5323 43.7486 32.4229 43.7545C34.2725 43.7604 36.075 43.6723 37.8248 43.502C40.1205 43.273 42.3282 42.8914 44.442 42.3571C46.9961 41.7171 49.4152 40.8598 51.7051 39.7736Z" stroke="#6D25AD" stroke-width="1.57" stroke-linecap="round" stroke-linejoin="round"/>
<path d="M56.0028 37.29V49.0332L51.7048 46.5495V39.7737L42.5158 34.4599L40.5312 33.3209V28.3535L40.6252 28.4064L42.4806 29.4809L46.8079 31.9763L56.0028 37.29Z" stroke="#6D25AD" stroke-width="1.57" stroke-linecap="round" stroke-linejoin="round"/>
<path d="M62.9028 26.2227V37.9012C62.9263 42.07 60.6246 45.7808 56.0039 49.0337V37.2905C58.3114 35.67 60.0375 33.932 61.1883 32.0766C62.3333 30.2388 62.9028 28.2836 62.9028 26.2227Z" stroke="#6D25AD" stroke-width="1.57" stroke-linecap="round" stroke-linejoin="round"/>
<path d="M41.4999 26.0877C41.4646 26.8334 41.1769 27.5556 40.625 28.2426V23.8096C41.2356 24.5376 41.5292 25.2951 41.4999 26.0877Z" stroke="#6D25AD" stroke-width="1.57" stroke-linecap="round" stroke-linejoin="round"/>
</g>
<defs>
<clipPath id="clip0_1392_1391">
<rect width="64" height="64" fill="white" transform="translate(0.5)"/>
</clipPath>
</defs>
</svg>
