<svg width="121" height="120" viewBox="0 0 121 120" fill="none" xmlns="http://www.w3.org/2000/svg">
<path d="M116.649 37.688V64.0616H116.609V55.2528L116.596 55.2397L101.088 55.2133C100.06 57.0067 98.7279 58.6682 97.1059 60.2111C95.6554 61.5825 93.9676 62.8484 92.0423 64.0221L75.2422 63.9957V37.6221L116.649 37.688Z" stroke="#2564AD" stroke-width="3.95604" stroke-linecap="round" stroke-linejoin="round"/>
<path d="M3.28419 79.4634V105.837L3.15234 81.9293V55.5557H3.1919L3.28419 79.4634Z" stroke="#2564AD" stroke-width="3.95604" stroke-linecap="round" stroke-linejoin="round"/>
<path d="M17.7736 79.4902V105.864L3.28125 105.837V79.4639L17.7736 79.4902Z" stroke="#2564AD" stroke-width="3.95604" stroke-linecap="round" stroke-linejoin="round"/>
<path d="M116.651 37.6878L75.2441 37.6217L75.2045 29.2482L91.7672 29.2877L90.8573 28.7603C82.2067 23.7625 71.8155 21.2701 59.6969 21.2701C47.5782 21.2701 37.187 23.7757 28.4968 28.7999C26.2683 30.079 24.3298 31.5032 22.6947 33.046C21.0727 34.5757 19.7408 36.2503 18.7122 38.0437L3.19141 38.0043C4.54965 35.024 6.48811 32.2679 8.96723 29.736C11.4595 27.1909 14.5056 24.8834 18.1188 22.7998C29.6309 16.1537 43.4639 12.8174 59.5914 12.791C75.7188 12.791 89.5782 16.1141 101.169 22.7998L102.079 23.3273L102.027 13.7668L116.519 13.7932L116.651 37.6878Z" fill="#9EC2EA" stroke="#2564AD" stroke-width="3.95604" stroke-linecap="round" stroke-linejoin="round"/>
<path d="M44.5963 64.0083V70.4171C38.8733 69.1907 33.6513 67.2127 28.9436 64.4962L28.0469 63.9688L44.5963 64.0083Z" stroke="#2564AD" stroke-width="3.95604" stroke-linecap="round" stroke-linejoin="round"/>
<path d="M18.7122 38.0435V55.5819L9.52106 55.5687L3.19141 55.5556V38.0039L18.7122 38.0435Z" stroke="#2564AD" stroke-width="3.95604" stroke-linecap="round" stroke-linejoin="round"/>
<path d="M75.2032 29.2485L75.2428 37.6222V49.2266C70.4296 48.1584 65.2472 47.6441 59.6956 47.6441C47.5769 47.6441 37.1857 50.1496 28.4956 55.1738C28.245 55.3189 28.0076 55.4639 27.7703 55.609L18.7109 55.5826V38.0441C19.7395 36.2507 21.0712 34.576 22.6932 33.0463C24.3284 31.5035 26.267 30.0793 28.4956 28.8002C37.1857 23.776 47.5769 21.2705 59.6956 21.2705C71.8142 21.2705 82.2054 23.7628 90.856 28.7606L91.7659 29.2881L75.2032 29.2485Z" stroke="#2564AD" stroke-width="3.95604" stroke-linecap="round" stroke-linejoin="round"/>
<path d="M116.598 55.2393C115.253 58.2459 113.328 60.9887 110.835 63.5206C110.664 63.7052 110.479 63.8766 110.295 64.0481C107.908 66.3953 105.033 68.5184 101.684 70.4568C90.1716 77.103 76.3386 80.4393 60.2111 80.4656C54.7386 80.4656 49.543 80.0832 44.5979 79.3184C34.9452 77.8283 26.2947 74.8744 18.6331 70.4568L17.7232 69.9294L17.776 79.4898L3.28369 79.4634L3.19141 55.5558H9.52106L18.7122 55.5821L27.7716 55.6085L44.5584 55.6349L44.5979 64.0085L28.0485 63.9689L28.9452 64.4964C33.6529 67.2129 38.8749 69.1909 44.5979 70.4173C49.4111 71.4722 54.5804 71.9865 60.1056 71.9865C72.2243 71.9865 82.6287 69.4678 91.3056 64.4568C91.5562 64.3118 91.7936 64.1667 92.0441 64.0217C93.9694 62.8481 95.6573 61.5821 97.1078 60.2107C98.7298 58.6678 100.062 57.0063 101.09 55.2129L116.598 55.2393Z" fill="#DCE9F8" stroke="#2564AD" stroke-width="3.95604" stroke-linecap="round" stroke-linejoin="round"/>
<path d="M116.61 56.8881V81.6134C115.252 84.6068 113.327 87.3628 110.835 89.8947C108.342 92.4397 105.296 94.7474 101.683 96.831C90.171 103.477 76.338 106.813 60.2106 106.84C44.0831 106.853 30.2238 103.517 18.6325 96.831L17.7754 96.3299V79.4903L17.7227 69.9299L18.6325 70.4573C26.2941 74.8749 34.9446 77.8288 44.5974 79.3189C49.5424 80.0837 54.738 80.4661 60.2106 80.4661C76.338 80.4397 90.171 77.1035 101.683 70.4573C105.033 68.5189 107.907 66.3958 110.294 64.0485C110.479 63.8771 110.663 63.7057 110.835 63.5211C113.327 60.9892 115.252 58.2463 116.597 55.2529V56.8881H116.61Z" stroke="#2564AD" stroke-width="3.95604" stroke-linecap="round" stroke-linejoin="round"/>
</svg>
