<svg width="121" height="120" viewBox="0 0 121 120" fill="none" xmlns="http://www.w3.org/2000/svg">
<path d="M34.9835 72.6436V94.4617L12.1836 107.629V85.8107L30.9471 74.9781L34.9835 72.6436Z" stroke="#4641D7" stroke-width="3.27273" stroke-linecap="round" stroke-linejoin="round"/>
<path d="M39.3673 59.5199L25.6437 67.4399C24.5965 65.0508 24.0617 62.6181 24.0508 60.1199V38.3018C24.0726 42.0545 25.2618 45.6763 27.6509 49.1781C27.7818 49.3745 27.9128 49.5708 28.0546 49.7672C30.7055 53.4436 34.4691 56.6945 39.3673 59.5199Z" stroke="#4641D7" stroke-width="3.27273" stroke-linecap="round" stroke-linejoin="round"/>
<path d="M117.27 67.5161L108.16 72.7853C104.135 75.109 99.6077 76.9853 94.5568 78.4035C93.4986 78.7199 92.4296 78.9925 91.3278 79.2543C84.9678 80.7598 78.3567 81.5017 71.5058 81.4908C64.644 81.4908 58.0659 80.7053 51.7604 79.1781C45.4659 77.6508 39.8694 75.469 34.9821 72.6435L30.9459 74.9781L12.1822 85.8107L3.00781 80.5089L25.6442 67.4399L39.3676 59.5199C34.4694 56.6944 30.706 53.4435 28.0551 49.7672C27.9133 49.5708 27.7821 49.3744 27.6512 49.1781C25.2621 45.6763 24.073 42.0544 24.0512 38.3017C24.0294 34.3417 25.3386 30.5343 27.9895 26.8907C30.6295 23.2361 34.3933 20.018 39.2478 17.2034L48.3676 11.9453L57.5424 17.2362C62.3642 20.018 66.0949 23.2472 68.7458 26.9344C71.3967 30.6108 72.7277 34.429 72.7495 38.389C72.7604 39.1526 72.7058 39.9161 72.6076 40.6689C72.3676 42.5889 71.8005 44.4543 70.906 46.2761C70.4042 47.3016 69.815 48.3053 69.1277 49.2981C68.1241 50.749 66.924 52.1781 65.5167 53.5635C66.4331 53.4763 67.3713 53.4217 68.3204 53.3999C69.2695 53.3781 70.2841 53.3671 71.3532 53.3671C71.7677 53.3671 72.1931 53.3672 72.6076 53.389C79.0112 53.4872 85.2185 54.2507 91.1967 55.6798C97.5676 57.218 103.208 59.3889 108.095 62.2143L117.27 67.5161Z" fill="#A19EEA" stroke="#4641D7" stroke-width="3.27273" stroke-linecap="round" stroke-linejoin="round"/>
<path d="M117.272 67.5166V89.3348L108.163 94.604C103.297 97.4076 97.6899 99.5675 91.3299 101.073C84.9699 102.578 78.3589 103.32 71.508 103.309C64.6462 103.309 58.0681 102.524 51.7627 100.997C45.4681 99.4694 39.8716 97.2876 34.9844 94.4622V72.644C39.8716 75.4694 45.4681 77.6513 51.7627 79.1785C58.0681 80.7058 64.6462 81.4804 71.508 81.4913C78.3589 81.5022 84.9699 80.7602 91.3299 79.2548C92.4318 78.993 93.5008 78.7203 94.559 78.404C99.6099 76.9858 104.137 75.1094 108.163 72.7858L117.272 67.5166Z" stroke="#4641D7" stroke-width="3.27273" stroke-linecap="round" stroke-linejoin="round"/>
<path d="M72.6104 40.6689V53.3891C72.1959 53.3672 71.7705 53.3671 71.356 53.3671C70.2869 53.3671 69.2724 53.3781 68.3233 53.4C67.3742 53.4218 66.4359 53.4763 65.5195 53.5636C66.9268 52.1781 68.1269 50.7491 69.1305 49.2981C69.8178 48.3054 70.407 47.3017 70.9088 46.2762C71.8034 44.4544 72.3704 42.5889 72.6104 40.6689Z" stroke="#4641D7" stroke-width="3.27273" stroke-linecap="round" stroke-linejoin="round"/>
<path d="M72.6094 40.6696V40.4951" stroke="#4641D7" stroke-width="3.27273" stroke-linecap="round" stroke-linejoin="round"/>
<path d="M12.1822 85.8106V107.629L3.00781 102.327V80.5088L12.1822 85.8106Z" stroke="#4641D7" stroke-width="3.27273" stroke-linecap="round" stroke-linejoin="round"/>
</svg>
