<svg width="121" height="120" viewBox="0 0 121 120" fill="none" xmlns="http://www.w3.org/2000/svg">
<path d="M67.6025 39.9631V57.8751L67.5034 57.82C65.1475 58.4806 62.7254 58.8108 60.2264 58.7998C57.7383 58.7998 55.3053 58.4585 52.9383 57.798L44.8245 62.4879V53.1081C43.2722 51.2035 42.7658 49.2218 43.3273 47.1851C43.8887 45.1374 45.452 43.387 48.0062 41.9118C50.5603 40.4365 53.6319 39.5118 57.2429 39.1484C60.8429 38.7851 64.2998 39.0604 67.6025 39.9631Z" stroke="#6D25AD" stroke-width="3.30275" stroke-linecap="round" stroke-linejoin="round"/>
<path d="M44.8227 53.1084V62.4882L24.1145 74.4442V87.0827L16.0117 91.7726V69.7543L44.8227 53.1084Z" stroke="#6D25AD" stroke-width="3.30275" stroke-linecap="round" stroke-linejoin="round"/>
<path d="M16.0129 69.754V91.7723C7.29361 85.6512 2.91193 78.7375 2.87891 71.031V49.0127C2.88992 52.7888 3.95782 56.3778 6.06057 59.7687C8.25139 63.3026 11.5652 66.6384 16.0129 69.754Z" stroke="#6D25AD" stroke-width="3.30275" stroke-linecap="round" stroke-linejoin="round"/>
<path d="M96.2349 23.4385L70.3412 38.378L67.5999 39.9633C64.2972 39.0605 60.8403 38.7853 57.2403 39.1486C53.6293 39.5119 50.5578 40.4367 48.0037 41.9119C45.4496 43.3871 43.8863 45.1376 43.3248 47.1853C42.7633 49.222 43.2696 51.2036 44.8219 53.1082L16 69.7541C11.5523 66.6385 8.2385 63.3027 6.04767 59.7688C3.94492 56.378 2.87704 52.789 2.86603 49.0128C2.85502 48.4073 2.87704 47.8018 2.93209 47.1963C3.62567 38.7523 9.18528 31.5302 19.5999 25.5082C30.0146 19.4972 42.532 16.2936 57.1632 15.8862C71.7834 15.4899 84.8074 18 96.2349 23.4385Z" fill="#AE73E1" stroke="#6D25AD" stroke-width="3.30275" stroke-linecap="round" stroke-linejoin="round"/>
<path d="M117.506 49.0456V49.1667C117.506 53.0309 116.438 56.697 114.292 60.1429C112.134 63.6218 108.897 66.8805 104.571 69.919L87.3302 59.9557L79.2165 55.2768L75.7266 53.2621V52.9539C76.7614 51.6658 77.3009 50.3117 77.3669 48.9135C77.422 47.4273 76.8715 46.0071 75.7266 44.642L82.7394 40.5906L96.2367 32.7961L104.35 28.1172C113.081 34.2493 117.462 41.2181 117.506 49.0456Z" fill="#EBDCF8" stroke="#6D25AD" stroke-width="3.30275" stroke-linecap="round" stroke-linejoin="round"/>
<path d="M75.7355 52.9541V53.2624L75.5703 53.1633C75.6254 53.0972 75.6914 53.0202 75.7355 52.9541Z" stroke="#6D25AD" stroke-width="3.30275" stroke-linecap="round" stroke-linejoin="round"/>
<path d="M96.2364 23.4385V32.7962L82.7392 40.5907L75.7263 44.6421V52.954C75.6823 53.0201 75.6162 53.0972 75.5612 53.1632V57.3907L71.1575 59.9339L67.6016 57.8751V39.9632L70.3428 38.3779L96.2364 23.4385Z" stroke="#6D25AD" stroke-width="3.30275" stroke-linecap="round" stroke-linejoin="round"/>
<path d="M96.5096 74.5758C92.216 76.6125 87.6803 78.2199 82.8913 79.4199C78.928 80.4217 74.7885 81.1373 70.4839 81.5667C67.2032 81.8859 63.8234 82.0511 60.3555 82.0401C56.8105 82.029 53.3647 81.8529 50.0289 81.5006C45.7243 81.0492 41.5959 80.3116 37.6215 79.2878C32.8766 78.0878 28.3738 76.4694 24.1133 74.4437L44.8215 62.4878L52.9353 57.7979C55.3023 58.4584 57.7353 58.7997 60.2234 58.7997C62.7225 58.7997 65.1445 58.4804 67.5004 57.8199L67.5995 57.8749L71.1555 59.9336L75.5592 62.4768L79.2692 64.6125L96.5096 74.5758Z" fill="#DBC1F2" stroke="#6D25AD" stroke-width="3.30275" stroke-linecap="round" stroke-linejoin="round"/>
<path d="M96.5096 74.5764V96.5948C85.9518 101.593 73.8968 104.081 60.3555 104.059C46.8032 104.026 34.7261 101.494 24.1133 96.4627V74.4443C28.3738 76.47 32.8766 78.0884 37.6215 79.2884C41.5959 80.3122 45.7243 81.0498 50.0289 81.5012C53.3647 81.8535 56.8105 82.0297 60.3555 82.0407C63.8234 82.0517 67.2032 81.8865 70.4839 81.5673C74.7885 81.1379 78.928 80.4223 82.8913 79.4205C87.6803 78.2205 92.216 76.6131 96.5096 74.5764Z" stroke="#6D25AD" stroke-width="3.30275" stroke-linecap="round" stroke-linejoin="round"/>
<path d="M104.568 69.9191V91.9374L96.5091 87.2805V74.5759L79.2797 64.6126L75.5586 62.4768V53.1631L75.7347 53.2622L79.2136 55.2768L87.3274 59.9557L104.568 69.9191Z" stroke="#6D25AD" stroke-width="3.30275" stroke-linecap="round" stroke-linejoin="round"/>
<path d="M117.506 49.167V71.0642C117.55 78.8808 113.234 85.8386 104.57 91.9376V69.9193C108.897 66.8808 112.133 63.622 114.291 60.1431C116.438 56.6973 117.506 53.0312 117.506 49.167Z" stroke="#6D25AD" stroke-width="3.30275" stroke-linecap="round" stroke-linejoin="round"/>
<path d="M77.3787 48.9141C77.3126 50.3123 76.7731 51.6664 75.7383 52.9545V44.6426C76.8832 46.0077 77.4337 47.4279 77.3787 48.9141Z" stroke="#6D25AD" stroke-width="3.30275" stroke-linecap="round" stroke-linejoin="round"/>
</svg>
