<svg width="55" height="56" viewBox="0 0 55 56" fill="none" xmlns="http://www.w3.org/2000/svg">
<path d="M15.8015 34.0654V44.0654L5.35156 50.1004V40.1004L13.9515 35.1354L15.8015 34.0654Z" stroke="#4641D7" stroke-width="2.15875" stroke-linecap="round" stroke-linejoin="round"/>
<path d="M17.8169 28.0531L11.527 31.6831C11.047 30.5881 10.8019 29.4731 10.7969 28.3281V18.3281C10.8069 20.0481 11.3519 21.7081 12.4469 23.3131C12.5069 23.4031 12.567 23.4931 12.632 23.5831C13.847 25.2681 15.5719 26.7581 17.8169 28.0531Z" stroke="#4641D7" stroke-width="2.15875" stroke-linecap="round" stroke-linejoin="round"/>
<path d="M53.5225 31.7161L49.3473 34.1311C47.5023 35.1961 45.4273 36.0561 43.1123 36.7061C42.6273 36.8511 42.1374 36.9761 41.6324 37.0961C38.7174 37.7861 35.6872 38.1261 32.5472 38.1211C29.4022 38.1211 26.3873 37.7611 23.4973 37.0611C20.6123 36.3611 18.0472 35.3611 15.8072 34.0661L13.9573 35.1361L5.35729 40.1011L1.15234 37.6711L11.5273 31.6811L17.8172 28.0511C15.5722 26.7561 13.8473 25.2661 12.6323 23.5811C12.5673 23.4911 12.5072 23.4011 12.4472 23.3111C11.3522 21.7061 10.8072 20.0461 10.7972 18.3261C10.7872 16.5111 11.3873 14.7661 12.6023 13.0961C13.8123 11.4211 15.5373 9.94607 17.7623 8.65607L21.9422 6.24609L26.1473 8.67108C28.3573 9.94608 30.0672 11.4261 31.2822 13.1161C32.4972 14.8011 33.1073 16.5511 33.1173 18.3661C33.1223 18.7161 33.0972 19.0661 33.0522 19.4111C32.9422 20.2911 32.6823 21.1461 32.2723 21.9811C32.0423 22.4511 31.7723 22.9111 31.4573 23.3661C30.9973 24.0311 30.4472 24.6861 29.8022 25.3211C30.2222 25.2811 30.6523 25.2561 31.0873 25.2461C31.5223 25.2361 31.9873 25.2311 32.4773 25.2311C32.6673 25.2311 32.8622 25.2311 33.0522 25.2411C35.9872 25.2861 38.8323 25.6361 41.5723 26.2911C44.4923 26.9961 47.0773 27.9911 49.3173 29.2861L53.5225 31.7161Z" fill="#A19EEA" stroke="#4641D7" stroke-width="2.15875" stroke-linecap="round" stroke-linejoin="round"/>
<path d="M53.5278 31.7178V41.7178L49.3526 44.1328C47.1226 45.4178 44.5526 46.4078 41.6376 47.0978C38.7226 47.7878 35.6925 48.1278 32.5525 48.1228C29.4075 48.1228 26.3926 47.7628 23.5026 47.0628C20.6175 46.3628 18.0525 45.3628 15.8125 44.0678V34.0678C18.0525 35.3628 20.6175 36.3628 23.5026 37.0628C26.3926 37.7628 29.4075 38.1178 32.5525 38.1228C35.6925 38.1278 38.7226 37.7878 41.6376 37.0978C42.1426 36.9778 42.6326 36.8528 43.1176 36.7078C45.4326 36.0578 47.5076 35.1978 49.3526 34.1328L53.5278 31.7178Z" stroke="#4641D7" stroke-width="2.15875" stroke-linecap="round" stroke-linejoin="round"/>
<path d="M33.0469 19.4102V25.2402C32.8569 25.2302 32.6619 25.2302 32.4719 25.2302C31.9819 25.2302 31.5169 25.2352 31.0819 25.2452C30.6469 25.2552 30.2169 25.2802 29.7969 25.3202C30.4419 24.6852 30.9919 24.0302 31.4519 23.3652C31.7669 22.9102 32.037 22.4502 32.267 21.9802C32.677 21.1452 32.9369 20.2902 33.0469 19.4102Z" stroke="#4641D7" stroke-width="2.15875" stroke-linecap="round" stroke-linejoin="round"/>
<path d="M33.043 19.412V19.332" stroke="#4641D7" stroke-width="2.15875" stroke-linecap="round" stroke-linejoin="round"/>
<path d="M5.35729 40.1038V50.1038L1.15234 47.6738V37.6738L5.35729 40.1038Z" stroke="#4641D7" stroke-width="2.15875" stroke-linecap="round" stroke-linejoin="round"/>
</svg>
