<svg width="55" height="56" viewBox="0 0 55 56" fill="none" xmlns="http://www.w3.org/2000/svg">
<path d="M53.2358 17.5136V29.6015H53.2177V25.5642L53.2117 25.5581L46.104 25.546C45.6325 26.368 45.0221 27.1296 44.2787 27.8367C43.6139 28.4653 42.8403 29.0455 41.9579 29.5834L34.2578 29.5713V17.4834L53.2358 17.5136Z" stroke="#2564AD" stroke-width="1.34922" stroke-linecap="round" stroke-linejoin="round"/>
<path d="M1.27527 36.6589V48.7468L1.21484 37.7891V25.7012H1.23298L1.27527 36.6589Z" stroke="#2564AD" stroke-width="1.34922" stroke-linecap="round" stroke-linejoin="round"/>
<path d="M7.91968 36.6703V48.7582L1.27734 48.7461V36.6582L7.91968 36.6703Z" stroke="#2564AD" stroke-width="1.34922" stroke-linecap="round" stroke-linejoin="round"/>
<path d="M53.2365 17.5126L34.2585 17.4823L34.2404 13.6444L41.8316 13.6625L41.4146 13.4208C37.4497 11.1302 32.6871 9.98783 27.1327 9.98783C21.5783 9.98783 16.8157 11.1362 12.8327 13.439C11.8113 14.0252 10.9228 14.678 10.1734 15.3851C9.42995 16.0862 8.81952 16.8537 8.34809 17.6757L1.23438 17.6576C1.8569 16.2917 2.74536 15.0285 3.88163 13.868C5.02394 12.7015 6.42006 11.6439 8.07611 10.6889C13.3525 7.64277 19.6926 6.11365 27.0844 6.10156C34.4761 6.10156 40.8283 7.62464 46.1409 10.6889L46.558 10.9307L46.5338 6.54882L53.1761 6.5609L53.2365 17.5126Z" fill="#9EC2EA" stroke="#2564AD" stroke-width="1.34922" stroke-linecap="round" stroke-linejoin="round"/>
<path d="M20.2102 29.5758V32.5131C17.5871 31.951 15.1937 31.0444 13.036 29.7994L12.625 29.5576L20.2102 29.5758Z" stroke="#2564AD" stroke-width="1.34922" stroke-linecap="round" stroke-linejoin="round"/>
<path d="M8.34809 17.6754V25.7138L4.13547 25.7078L1.23438 25.7017V17.6572L8.34809 17.6754Z" stroke="#2564AD" stroke-width="1.34922" stroke-linecap="round" stroke-linejoin="round"/>
<path d="M34.24 13.6449L34.2581 17.4828V22.8015C32.0521 22.3119 29.6768 22.0762 27.1323 22.0762C21.5779 22.0762 16.8152 23.2245 12.8323 25.5273C12.7174 25.5938 12.6086 25.6603 12.4999 25.7267L8.34766 25.7147V17.6762C8.81908 16.8542 9.42946 16.0866 10.1729 15.3855C10.9223 14.6784 11.8108 14.0256 12.8323 13.4394C16.8152 11.1366 21.5779 9.98828 27.1323 9.98828C32.6867 9.98828 37.4493 11.1306 41.4141 13.4212L41.8312 13.663L34.24 13.6449Z" stroke="#2564AD" stroke-width="1.34922" stroke-linecap="round" stroke-linejoin="round"/>
<path d="M53.2124 25.557C52.5959 26.935 51.7135 28.1922 50.5712 29.3526C50.4926 29.4372 50.408 29.5158 50.3234 29.5944C49.2294 30.6702 47.9118 31.6433 46.3767 32.5317C41.1003 35.5779 34.7602 37.107 27.3684 37.1191C24.8602 37.1191 22.4789 36.9438 20.2124 36.5933C15.7882 35.9103 11.8234 34.5565 8.31182 32.5317L7.89479 32.29L7.91897 36.6718L1.27667 36.6598L1.23438 25.7021H4.13547L8.34809 25.7142L12.5003 25.7262L20.1942 25.7383L20.2124 29.5762L12.6272 29.5581L13.0382 29.7999C15.1959 31.0449 17.5893 31.9515 20.2124 32.5136C22.4184 32.9971 24.7876 33.2328 27.3201 33.2328C32.8745 33.2328 37.6431 32.0784 41.6201 29.7817C41.7349 29.7153 41.8437 29.6488 41.9585 29.5823C42.8409 29.0444 43.6146 28.4642 44.2794 27.8356C45.0228 27.1284 45.6332 26.3669 46.1047 25.5449L53.2124 25.557Z" fill="#DCE9F8" stroke="#2564AD" stroke-width="1.34922" stroke-linecap="round" stroke-linejoin="round"/>
<path d="M53.222 26.3129V37.6453C52.5995 39.0173 51.7171 40.2805 50.5748 41.441C49.4325 42.6074 48.0364 43.6651 46.3803 44.6201C41.1039 47.6662 34.7638 49.1953 27.3721 49.2074C19.9803 49.2135 13.6281 47.6844 8.31547 44.6201L7.92261 44.3904V36.6723L7.89844 32.2904L8.31547 32.5322C11.827 34.5569 15.7918 35.9107 20.216 36.5937C22.4825 36.9442 24.8638 37.1195 27.3721 37.1195C34.7638 37.1074 41.1039 35.5783 46.3803 32.5322C47.9155 31.6437 49.2331 30.6706 50.327 29.5948C50.4116 29.5162 50.4962 29.4377 50.5748 29.353C51.7171 28.1926 52.5995 26.9355 53.216 25.5635V26.3129H53.222Z" stroke="#2564AD" stroke-width="1.34922" stroke-linecap="round" stroke-linejoin="round"/>
</svg>
