<svg width="55" height="55" viewBox="0 0 55 55" fill="none" xmlns="http://www.w3.org/2000/svg">
<path d="M30.7552 18.3225V26.5321L30.7097 26.5069C29.6299 26.8097 28.5198 26.961 27.3744 26.956C26.234 26.956 25.1189 26.7996 24.034 26.4968L20.3152 28.6464V24.3473C19.6038 23.4743 19.3717 22.5661 19.629 21.6326C19.8863 20.6941 20.6029 19.8918 21.7735 19.2156C22.9441 18.5395 24.3519 18.1156 26.007 17.9491C27.657 17.7826 29.2414 17.9087 30.7552 18.3225Z" stroke="#6D25AD" stroke-width="1.34922" stroke-linecap="round" stroke-linejoin="round"/>
<path d="M20.3261 24.3457V28.6448L10.8349 34.1246V39.9173L7.12109 42.0668V31.9751L20.3261 24.3457Z" stroke="#6D25AD" stroke-width="1.34922" stroke-linecap="round" stroke-linejoin="round"/>
<path d="M7.1135 31.9771V42.0689C3.11716 39.2634 1.10889 36.0946 1.09375 32.5624V22.4707C1.0988 24.2014 1.58825 25.8464 2.55201 27.4005C3.55614 29.0202 5.07496 30.5491 7.1135 31.9771Z" stroke="#6D25AD" stroke-width="1.34922" stroke-linecap="round" stroke-linejoin="round"/>
<path d="M43.8813 10.7496L32.0133 17.5968L30.7569 18.3234C29.2431 17.9097 27.6587 17.7835 26.0087 17.95C24.3537 18.1165 22.9459 18.5404 21.7753 19.2165C20.6046 19.8927 19.8881 20.695 19.6308 21.6335C19.3735 22.567 19.6055 23.4753 20.317 24.3482L7.10694 31.9775C5.06841 30.5496 3.54958 29.0207 2.54545 27.4009C1.58169 25.8468 1.09224 24.2019 1.0872 22.4711C1.08215 22.1936 1.09224 21.9161 1.11747 21.6386C1.43536 17.7684 3.98352 14.4583 8.75689 11.6982C13.5303 8.94315 19.2674 7.4748 25.9734 7.28811C32.6743 7.10645 38.6436 8.25691 43.8813 10.7496Z" fill="#AE73E1" stroke="#6D25AD" stroke-width="1.34922" stroke-linecap="round" stroke-linejoin="round"/>
<path d="M53.6334 22.4858V22.5413C53.6334 24.3124 53.144 25.9926 52.16 27.572C51.171 29.1665 49.6876 30.6601 47.7046 32.0527L39.8027 27.4862L36.0839 25.3417L34.4844 24.4183V24.277C34.9587 23.6867 35.2059 23.066 35.2362 22.4252C35.2614 21.744 35.0091 21.0931 34.4844 20.4674L37.6986 18.6105L43.8848 15.038L47.6036 12.8936C51.605 15.7041 53.6132 18.8981 53.6334 22.4858Z" fill="#EBDCF8" stroke="#6D25AD" stroke-width="1.34922" stroke-linecap="round" stroke-linejoin="round"/>
<path d="M34.4819 24.2773V24.4186L34.4062 24.3732C34.4315 24.3429 34.4618 24.3076 34.4819 24.2773Z" stroke="#6D25AD" stroke-width="1.34922" stroke-linecap="round" stroke-linejoin="round"/>
<path d="M43.8821 10.75V15.039L37.6959 18.6115L34.4817 20.4683V24.278C34.4615 24.3082 34.4312 24.3436 34.406 24.3738V26.3115L32.3876 27.4771L30.7578 26.5335V18.3238L32.0142 17.5972L43.8821 10.75Z" stroke="#6D25AD" stroke-width="1.34922" stroke-linecap="round" stroke-linejoin="round"/>
<path d="M44.002 34.186C42.0341 35.1195 39.9552 35.8562 37.7602 36.4062C35.9437 36.8654 34.0465 37.1933 32.0735 37.3901C30.5699 37.5365 29.0208 37.6121 27.4313 37.6071C25.8066 37.6021 24.2272 37.5213 22.6983 37.3599C20.7254 37.153 18.8332 36.8149 17.0116 36.3456C14.8368 35.7956 12.7731 35.0539 10.8203 34.1255L20.3116 28.6456L24.0304 26.4961C25.1153 26.7988 26.2304 26.9553 27.3708 26.9553C28.5162 26.9553 29.6263 26.8089 30.7061 26.5062L30.7515 26.5314L32.3813 27.475L34.3997 28.6406L36.1001 29.6195L44.002 34.186Z" fill="#DBC1F2" stroke="#6D25AD" stroke-width="1.34922" stroke-linecap="round" stroke-linejoin="round"/>
<path d="M44.002 34.1865V44.2783C39.163 46.5691 33.6377 47.7095 27.4313 47.6994C21.2199 47.6842 15.6845 46.5237 10.8203 44.2177V34.126C12.7731 35.0544 14.8368 35.7962 17.0116 36.3462C18.8332 36.8154 20.7254 37.1535 22.6983 37.3604C24.2272 37.5219 25.8066 37.6026 27.4313 37.6076C29.0208 37.6127 30.5699 37.537 32.0735 37.3907C34.0465 37.1939 35.9437 36.8659 37.7602 36.4067C39.9552 35.8567 42.0341 35.12 44.002 34.1865Z" stroke="#6D25AD" stroke-width="1.34922" stroke-linecap="round" stroke-linejoin="round"/>
<path d="M47.7021 32.0509V42.1427L44.0085 40.0082V34.1853L36.1118 29.6188L34.4062 28.6399V24.3711L34.487 24.4165L36.0815 25.3399L39.8003 27.4844L47.7021 32.0509Z" stroke="#6D25AD" stroke-width="1.34922" stroke-linecap="round" stroke-linejoin="round"/>
<path d="M53.6319 22.54V32.5763C53.6521 36.1588 51.6741 39.3478 47.7031 42.1432V32.0515C49.6862 30.6588 51.1695 29.1653 52.1585 27.5708C53.1424 25.9914 53.6319 24.3111 53.6319 22.54Z" stroke="#6D25AD" stroke-width="1.34922" stroke-linecap="round" stroke-linejoin="round"/>
<path d="M35.2362 22.4246C35.2059 23.0654 34.9587 23.6861 34.4844 24.2764V20.4668C35.0091 21.0925 35.2614 21.7434 35.2362 22.4246Z" stroke="#6D25AD" stroke-width="1.34922" stroke-linecap="round" stroke-linejoin="round"/>
</svg>
