<svg width="149" height="57" viewBox="0 0 149 57" fill="none" xmlns="http://www.w3.org/2000/svg">
<g clip-path="url(#clip0_1241_1245)">
<path d="M6.21945 15.6982C9.65372 15.6982 12.4389 18.4834 12.4389 21.9177C12.4389 25.352 9.65372 28.1371 6.21945 28.1371C2.78518 28.1371 0 25.352 0 21.9177C0 18.4834 2.78518 15.6982 6.21945 15.6982Z" fill="#2925AD"/>
<path d="M6.21945 28.8628C9.65372 28.8628 12.4389 31.648 12.4389 35.0822C12.4389 38.5165 9.65372 41.3017 6.21945 41.3017C2.78518 41.3017 0 38.5165 0 35.0822C0 31.648 2.78518 28.8628 6.21945 28.8628Z" fill="#2925AD"/>
<path fill-rule="evenodd" clip-rule="evenodd" d="M25.6108 21.9177C25.6108 18.4834 22.8256 15.6982 19.3913 15.6982C15.9571 15.6982 13.1719 18.4834 13.1719 21.9177V22.1773C13.1719 25.6116 15.9571 28.3968 19.3913 28.3968C22.8256 28.3968 25.6108 25.6116 25.6108 22.1773V21.9177ZM19.1736 26.3672H19.5394C21.9764 26.3672 23.9532 24.3904 23.9532 21.9534C23.9532 19.5163 21.9764 17.5396 19.5394 17.5396H19.1736C16.7365 17.5396 14.7598 19.5163 14.7598 21.9534C14.7598 24.3904 16.7365 26.3672 19.1736 26.3672Z" fill="#2925AD"/>
<path d="M22.1092 39.8269C23.6344 39.8269 24.8708 38.5905 24.8708 37.0653C24.8708 35.5401 23.6344 34.3037 22.1092 34.3037C20.5841 34.3037 19.3477 35.5401 19.3477 37.0653C19.3477 38.5905 20.5841 39.8269 22.1092 39.8269Z" fill="#2925AD"/>
</g>
<path d="M32.3566 16.6187H41.8C43.6773 16.6187 45.2912 16.9278 46.6419 17.5459C48.0155 18.164 49.0686 19.0568 49.8012 20.2244C50.5338 21.3919 50.9001 22.777 50.9001 24.3795C50.9001 26.0049 50.5338 27.4129 49.8012 28.6033C49.0686 29.7709 48.0155 30.6637 46.6419 31.2818C45.2912 31.8999 43.6773 32.209 41.8 32.209H36.8207V41H32.3566V16.6187ZM41.594 28.3286C43.1049 28.3286 44.261 27.9966 45.0623 27.3327C45.8865 26.6688 46.2985 25.6844 46.2985 24.3795C46.2985 23.1204 45.8865 22.1589 45.0623 21.495C44.261 20.8311 43.1049 20.4991 41.594 20.4991H36.8207V28.3286H41.594ZM59.6047 41.4121C57.6588 41.4121 56.102 40.9771 54.9345 40.1072C53.7898 39.2143 53.2175 37.9781 53.2175 36.3985C53.2175 34.8417 53.6982 33.6169 54.6598 32.7241C55.6442 31.8313 57.1551 31.1788 59.1926 30.7667L65.2708 29.5648C65.2708 28.2599 64.9732 27.287 64.3779 26.6459C63.7827 25.982 62.9128 25.6501 61.7681 25.6501C60.715 25.6501 59.8794 25.8905 59.2613 26.3712C58.6432 26.852 58.2311 27.5617 58.0251 28.5003L53.5265 28.2943C53.8699 26.3483 54.7513 24.8603 56.1707 23.8301C57.613 22.777 59.4788 22.2504 61.7681 22.2504C64.355 22.2504 66.3124 22.9029 67.6402 24.2078C68.9909 25.5127 69.6663 27.4014 69.6663 29.8739V36.5358C69.6663 37.0166 69.7464 37.3485 69.9066 37.5317C70.0898 37.7148 70.3531 37.8064 70.6965 37.8064H71.2802V41C71.12 41.0458 70.8911 41.0801 70.5934 41.103C70.2958 41.1259 69.9982 41.1374 69.7006 41.1374C68.4415 41.1374 67.4685 40.8283 66.7817 40.2102C66.1178 39.5921 65.7859 38.5275 65.7859 37.0166L66.1636 37.2913C65.8889 38.5046 65.1449 39.5005 63.9315 40.2789C62.7411 41.0343 61.2988 41.4121 59.6047 41.4121ZM60.4975 38.2185C61.4819 38.2185 62.329 38.0239 63.0387 37.6347C63.7484 37.2455 64.2978 36.7075 64.687 36.0207C65.0762 35.311 65.2708 34.4983 65.2708 33.5826V32.5524L60.5319 33.5139C59.5704 33.6971 58.8721 33.9947 58.4371 34.4067C58.0022 34.8188 57.7847 35.3454 57.7847 35.9864C57.7847 36.6961 58.0136 37.2455 58.4715 37.6347C58.9522 38.0239 59.6276 38.2185 60.4975 38.2185ZM82.504 41.4121C80.6954 41.4121 79.1158 41.0229 77.7651 40.2445C76.4144 39.4433 75.3613 38.3215 74.6058 36.8792C73.8504 35.4141 73.4726 33.7314 73.4726 31.8313C73.4726 29.9311 73.8504 28.2599 74.6058 26.8176C75.3613 25.3525 76.4144 24.2307 77.7651 23.4523C79.1158 22.6511 80.6954 22.2504 82.504 22.2504C84.0607 22.2504 85.4458 22.5252 86.6591 23.0746C87.8954 23.624 88.8912 24.4253 89.6467 25.4784C90.4022 26.5086 90.8715 27.7334 91.0546 29.1528L86.5218 29.3931C86.3386 28.2485 85.8922 27.3671 85.1825 26.749C84.4728 26.1308 83.58 25.8218 82.504 25.8218C81.0846 25.8218 79.9857 26.3483 79.2074 27.4014C78.429 28.4545 78.0398 29.9311 78.0398 31.8313C78.0398 33.7314 78.429 35.208 79.2074 36.2611C79.9857 37.3142 81.0846 37.8407 82.504 37.8407C83.6029 37.8407 84.5072 37.5317 85.2169 36.9136C85.9265 36.2725 86.3615 35.311 86.5218 34.029L91.0546 34.2351C90.8944 35.7002 90.4365 36.9708 89.681 38.0468C88.9256 39.1228 87.9297 39.9584 86.6935 40.5536C85.4572 41.1259 84.0607 41.4121 82.504 41.4121ZM100.966 41C99.1342 41 97.7835 40.5765 96.9136 39.7294C96.0665 38.8824 95.643 37.5546 95.643 35.746V18.37H100.039V35.3339C100.039 36.1581 100.21 36.7419 100.554 37.0853C100.92 37.4287 101.504 37.6004 102.305 37.6004H104.88V41H100.966ZM92.7585 22.6625H104.88V26.0622H92.7585V22.6625ZM116.005 41.4121C114.197 41.4121 112.617 41.0229 111.267 40.2445C109.916 39.4433 108.863 38.3215 108.107 36.8792C107.352 35.4369 106.974 33.7543 106.974 31.8313C106.974 29.9082 107.352 28.2256 108.107 26.7833C108.863 25.341 109.916 24.2307 111.267 23.4523C112.617 22.6511 114.197 22.2504 116.005 22.2504C117.791 22.2504 119.359 22.6511 120.71 23.4523C122.084 24.2307 123.137 25.341 123.869 26.7833C124.625 28.2256 125.003 29.9082 125.003 31.8313C125.003 33.7543 124.625 35.4369 123.869 36.8792C123.137 38.3215 122.084 39.4433 120.71 40.2445C119.359 41.0229 117.791 41.4121 116.005 41.4121ZM116.005 37.8407C117.425 37.8407 118.524 37.3142 119.302 36.2611C120.08 35.208 120.47 33.7314 120.47 31.8313C120.47 29.954 120.08 28.4888 119.302 27.4358C118.524 26.3598 117.425 25.8218 116.005 25.8218C114.586 25.8218 113.487 26.3483 112.709 27.4014C111.93 28.4545 111.541 29.9311 111.541 31.8313C111.541 33.7314 111.93 35.208 112.709 36.2611C113.487 37.3142 114.586 37.8407 116.005 37.8407Z" fill="#303030"/>
<defs>
<clipPath id="clip0_1241_1245">
<rect width="25.6093" height="25.6036" fill="white" transform="translate(0 15.6982)"/>
</clipPath>
</defs>
</svg>
