<svg width="178" height="74" viewBox="0 0 178 74" fill="none" xmlns="http://www.w3.org/2000/svg">
<mask id="mask0_1088_816" style="mask-type:luminance" maskUnits="userSpaceOnUse" x="25" y="24" width="26" height="27">
<path d="M50.9757 24.1736H25V50.1434H50.9757V24.1736Z" fill="white"/>
</mask>
<g mask="url(#mask0_1088_816)">
<path d="M31.3084 24.1737C34.7918 24.1737 37.6168 26.9987 37.6168 30.4821C37.6168 33.9655 34.7918 36.7905 31.3084 36.7905C27.825 36.7905 25 33.9655 25 30.4821C25 26.9987 27.825 24.1737 31.3084 24.1737Z" fill="#FCFCFC"/>
<path d="M31.3084 37.5266C34.7918 37.5266 37.6168 40.3516 37.6168 43.835C37.6168 47.3184 34.7918 50.1434 31.3084 50.1434C27.825 50.1434 25 47.3184 25 43.835C25 40.3516 27.825 37.5266 31.3084 37.5266Z" fill="#FCFCFC"/>
<path fill-rule="evenodd" clip-rule="evenodd" d="M50.9762 30.482C50.9762 26.9986 48.1511 24.1736 44.6678 24.1736C41.1844 24.1736 38.3594 26.9986 38.3594 30.482V30.7453C38.3594 34.2287 41.1844 37.0537 44.6678 37.0537C48.1511 37.0537 50.9762 34.2287 50.9762 30.7453V30.482ZM44.4461 34.9948H44.8172C47.289 34.9948 49.2941 32.9898 49.2941 30.5179C49.2941 28.046 47.289 26.041 44.8172 26.041H44.4461C41.9742 26.041 39.9692 28.046 39.9692 30.5179C39.9692 32.9898 41.9742 34.9948 44.4461 34.9948Z" fill="#FCFCFC"/>
<path d="M47.4261 48.6471C48.9731 48.6471 50.2271 47.393 50.2271 45.846C50.2271 44.299 48.9731 43.0449 47.4261 43.0449C45.8791 43.0449 44.625 44.299 44.625 45.846C44.625 47.393 45.8791 48.6471 47.4261 48.6471Z" fill="#FCFCFC"/>
</g>
<path d="M59.0068 26.6039H67.3555C69.0151 26.6039 70.4419 26.8771 71.636 27.4236C72.8504 27.9701 73.7814 28.7594 74.429 29.7916C75.0767 30.8238 75.4005 32.0482 75.4005 33.465C75.4005 34.902 75.0767 36.1467 74.429 37.1991C73.7814 38.2313 72.8504 39.0206 71.636 39.5671C70.4419 40.1135 69.0151 40.3868 67.3555 40.3868H62.9534V48.1586H59.0068V26.6039ZM67.1733 36.9562C68.5091 36.9562 69.5312 36.6628 70.2395 36.0758C70.9681 35.4889 71.3324 34.6186 71.3324 33.465C71.3324 32.3518 70.9681 31.5018 70.2395 30.9148C69.5312 30.3279 68.5091 30.0344 67.1733 30.0344H62.9534V36.9562H67.1733ZM83.0959 48.5229C81.3756 48.5229 79.9994 48.1383 78.9672 47.3692C77.9552 46.5799 77.4492 45.487 77.4492 44.0905C77.4492 42.7142 77.8743 41.6315 78.7243 40.8421C79.5946 40.0528 80.9304 39.476 82.7316 39.1117L88.1051 38.0491C88.1051 36.8955 87.842 36.0353 87.3158 35.4686C86.7896 34.8817 86.0205 34.5882 85.0085 34.5882C84.0775 34.5882 83.3388 34.8008 82.7924 35.2258C82.2459 35.6508 81.8816 36.2782 81.6994 37.108L77.7225 36.9259C78.026 35.2055 78.8053 33.89 80.0601 32.9792C81.3351 32.0482 82.9846 31.5827 85.0085 31.5827C87.2956 31.5827 89.026 32.1596 90.1999 33.3132C91.394 34.4668 91.991 36.1365 91.991 38.3224V44.2119C91.991 44.637 92.0619 44.9304 92.2035 45.0923C92.3655 45.2543 92.5982 45.3352 92.9018 45.3352H93.4179V48.1586C93.2762 48.199 93.0738 48.2294 92.8107 48.2496C92.5476 48.2699 92.2845 48.28 92.0214 48.28C90.9082 48.28 90.0481 48.0068 89.4409 47.4603C88.854 46.9139 88.5605 45.9727 88.5605 44.637L88.8945 44.8798C88.6516 45.9525 87.9938 46.8329 86.9211 47.521C85.8687 48.1889 84.5936 48.5229 83.0959 48.5229ZM83.8853 45.6995C84.7556 45.6995 85.5044 45.5275 86.1318 45.1834C86.7592 44.8394 87.245 44.3637 87.589 43.7566C87.9331 43.1292 88.1051 42.4107 88.1051 41.6011V40.6903L83.9156 41.5404C83.0656 41.7023 82.4483 41.9654 82.0638 42.3297C81.6792 42.694 81.4869 43.1595 81.4869 43.7262C81.4869 44.3536 81.6893 44.8394 82.0941 45.1834C82.5191 45.5275 83.1162 45.6995 83.8853 45.6995ZM103.34 48.5229C101.742 48.5229 100.345 48.1788 99.1509 47.4907C97.9568 46.7823 97.0258 45.7906 96.3579 44.5155C95.69 43.2202 95.3561 41.7327 95.3561 40.0528C95.3561 38.373 95.69 36.8955 96.3579 35.6204C97.0258 34.3251 97.9568 33.3334 99.1509 32.6453C100.345 31.9369 101.742 31.5827 103.34 31.5827C104.717 31.5827 105.941 31.8256 107.014 32.3113C108.107 32.7971 108.987 33.5055 109.655 34.4365C110.323 35.3472 110.738 36.43 110.9 37.6848L106.892 37.8973C106.73 36.8854 106.336 36.1062 105.708 35.5597C105.081 35.0133 104.292 34.74 103.34 34.74C102.086 34.74 101.114 35.2055 100.426 36.1365C99.7379 37.0675 99.3938 38.373 99.3938 40.0528C99.3938 41.7327 99.7379 43.0381 100.426 43.9691C101.114 44.9001 102.086 45.3656 103.34 45.3656C104.312 45.3656 105.111 45.0923 105.739 44.5459C106.366 43.9792 106.751 43.1292 106.892 41.9958L110.9 42.1779C110.758 43.4732 110.353 44.5965 109.685 45.5477C109.018 46.499 108.137 47.2377 107.044 47.7639C105.951 48.2699 104.717 48.5229 103.34 48.5229ZM119.662 48.1586C118.043 48.1586 116.849 47.7841 116.079 47.0353C115.331 46.2865 114.956 45.1126 114.956 43.5137V28.1522H118.842V43.1494C118.842 43.878 118.994 44.3941 119.297 44.6977C119.621 45.0013 120.137 45.1531 120.846 45.1531H123.123V48.1586H119.662ZM112.406 31.947H123.123V34.9525H112.406V31.947ZM132.958 48.5229C131.359 48.5229 129.963 48.1788 128.768 47.4907C127.574 46.7823 126.643 45.7906 125.975 44.5155C125.308 43.2405 124.974 41.7529 124.974 40.0528C124.974 38.3527 125.308 36.8651 125.975 35.5901C126.643 34.315 127.574 33.3334 128.768 32.6453C129.963 31.9369 131.359 31.5827 132.958 31.5827C134.537 31.5827 135.923 31.9369 137.117 32.6453C138.331 33.3334 139.262 34.315 139.91 35.5901C140.578 36.8651 140.912 38.3527 140.912 40.0528C140.912 41.7529 140.578 43.2405 139.91 44.5155C139.262 45.7906 138.331 46.7823 137.117 47.4907C135.923 48.1788 134.537 48.5229 132.958 48.5229ZM132.958 45.3656C134.213 45.3656 135.184 44.9001 135.872 43.9691C136.56 43.0381 136.905 41.7327 136.905 40.0528C136.905 38.3932 136.56 37.0979 135.872 36.1669C135.184 35.2157 134.213 34.74 132.958 34.74C131.703 34.74 130.732 35.2055 130.043 36.1365C129.355 37.0675 129.011 38.373 129.011 40.0528C129.011 41.7327 129.355 43.0381 130.043 43.9691C130.732 44.9001 131.703 45.3656 132.958 45.3656Z" fill="#FCFCFC"/>
</svg>
